G04 #@! TF.FileFunction,Copper,L2,Bot,Signal*
%FSLAX46Y46*%
G04 Gerber Fmt 4.6, Leading zero omitted, Abs format (unit mm)*
G04 Created by KiCad (PCBNEW 4.0.1-stable) date 9/12/2016 12:56:57 PM*
%MOMM*%
G01*
G04 APERTURE LIST*
%ADD10C,0.100000*%
%ADD11R,1.300000X1.300000*%
%ADD12C,1.300000*%
%ADD13R,1.600000X2.000000*%
%ADD14R,1.524000X2.032000*%
%ADD15R,2.032000X1.727200*%
%ADD16O,2.032000X1.727200*%
%ADD17R,1.727200X2.032000*%
%ADD18O,1.727200X2.032000*%
%ADD19R,2.000000X1.700000*%
%ADD20C,0.685800*%
%ADD21C,0.508000*%
%ADD22C,0.254000*%
G04 APERTURE END LIST*
D10*
D11*
X155956000Y-60960000D03*
D12*
X155956000Y-58960000D03*
D11*
X165100000Y-60960000D03*
D12*
X165100000Y-58960000D03*
D13*
X196342000Y-65754000D03*
X196342000Y-61754000D03*
X184404000Y-63278000D03*
X184404000Y-67278000D03*
D14*
X177927000Y-54864000D03*
X181229000Y-54864000D03*
D15*
X146812000Y-55880000D03*
D16*
X146812000Y-58420000D03*
X146812000Y-60960000D03*
X146812000Y-63500000D03*
X146812000Y-66040000D03*
X146812000Y-68580000D03*
D17*
X174752000Y-76200000D03*
D18*
X177292000Y-76200000D03*
X179832000Y-76200000D03*
X182372000Y-76200000D03*
X184912000Y-76200000D03*
X187452000Y-76200000D03*
X189992000Y-76200000D03*
X192532000Y-76200000D03*
D19*
X177832000Y-58928000D03*
X181832000Y-58928000D03*
D17*
X192532000Y-45720000D03*
D18*
X189992000Y-45720000D03*
X187452000Y-45720000D03*
X184912000Y-45720000D03*
X182372000Y-45720000D03*
X179832000Y-45720000D03*
X177292000Y-45720000D03*
X174752000Y-45720000D03*
X172212000Y-45720000D03*
X169672000Y-45720000D03*
D15*
X207772000Y-71120000D03*
D16*
X207772000Y-68580000D03*
X207772000Y-66040000D03*
X207772000Y-63500000D03*
X207772000Y-60960000D03*
X207772000Y-58420000D03*
X207772000Y-55880000D03*
X207772000Y-53340000D03*
D20*
X194183000Y-58039000D03*
X181991000Y-65087500D03*
X155448000Y-66040000D03*
X170688000Y-68326000D03*
X167894000Y-71120000D03*
X163322000Y-67310000D03*
X190500000Y-65024000D03*
X186499500Y-67310000D03*
X170434000Y-64897000D03*
X178562000Y-64960500D03*
X194056000Y-65786000D03*
X194056000Y-53594000D03*
X183896000Y-59436000D03*
D21*
X178562000Y-64960500D02*
X178219100Y-64960500D01*
X178219100Y-64960500D02*
X177546000Y-64287400D01*
X178562000Y-64960500D02*
X178320700Y-64960500D01*
X177546000Y-65735200D02*
X177546000Y-65786000D01*
X178320700Y-64960500D02*
X177546000Y-65735200D01*
X177546000Y-65786000D02*
X177546000Y-65786000D01*
X177546000Y-65786000D02*
X177533300Y-65786000D01*
X177533300Y-65786000D02*
X176707800Y-64960500D01*
X176707800Y-64960500D02*
X176872900Y-64960500D01*
X176872900Y-64960500D02*
X177546000Y-64287400D01*
X177927000Y-54864000D02*
X177927000Y-53467000D01*
X172212000Y-47752000D02*
X172212000Y-45720000D01*
X177927000Y-53467000D02*
X172212000Y-47752000D01*
X177546000Y-64960500D02*
X177546000Y-64287400D01*
X177546000Y-64287400D02*
X177546000Y-61531500D01*
X177832000Y-61245500D02*
X177832000Y-58928000D01*
X177546000Y-61531500D02*
X177832000Y-61245500D01*
X177546000Y-64960500D02*
X177546000Y-65786000D01*
X177546000Y-65786000D02*
X179038000Y-67278000D01*
X179038000Y-67278000D02*
X184404000Y-67278000D01*
X177927000Y-54864000D02*
X177927000Y-58833000D01*
X177927000Y-58833000D02*
X177832000Y-58928000D01*
X184404000Y-67278000D02*
X186467500Y-67278000D01*
X186467500Y-67278000D02*
X186499500Y-67310000D01*
X170497500Y-64960500D02*
X176707800Y-64960500D01*
X170434000Y-64897000D02*
X170497500Y-64960500D01*
X176707800Y-64960500D02*
X177546000Y-64960500D01*
X177546000Y-64960500D02*
X178562000Y-64960500D01*
D22*
X177800000Y-58960000D02*
X177927000Y-58833000D01*
X204216000Y-60960000D02*
X207772000Y-60960000D01*
X199422000Y-65754000D02*
X204216000Y-60960000D01*
X196342000Y-65754000D02*
X199422000Y-65754000D01*
X194088000Y-65754000D02*
X196342000Y-65754000D01*
X194056000Y-65786000D02*
X194088000Y-65754000D01*
X181229000Y-54864000D02*
X192786000Y-54864000D01*
X192786000Y-54864000D02*
X194056000Y-53594000D01*
X183388000Y-58928000D02*
X181832000Y-58928000D01*
X183896000Y-59436000D02*
X183388000Y-58928000D01*
X182372000Y-45720000D02*
X182372000Y-50292000D01*
X181229000Y-54864000D02*
X181229000Y-52578000D01*
X181229000Y-52578000D02*
X181229000Y-51435000D01*
X181229000Y-51435000D02*
X182372000Y-50292000D01*
X181832000Y-58928000D02*
X181832000Y-57372000D01*
X181229000Y-56769000D02*
X181229000Y-54864000D01*
X181832000Y-57372000D02*
X181229000Y-56769000D01*
G36*
X170827474Y-44961766D02*
X170713400Y-45535255D01*
X170713400Y-45904745D01*
X170827474Y-46478234D01*
X171152330Y-46964415D01*
X171323000Y-47078453D01*
X171323000Y-47752000D01*
X171390671Y-48092206D01*
X171583382Y-48380618D01*
X176662054Y-53459290D01*
X176568569Y-53596110D01*
X176517560Y-53848000D01*
X176517560Y-55880000D01*
X176561838Y-56115317D01*
X176700910Y-56331441D01*
X176913110Y-56476431D01*
X177038000Y-56501722D01*
X177038000Y-57430560D01*
X176832000Y-57430560D01*
X176596683Y-57474838D01*
X176380559Y-57613910D01*
X176235569Y-57826110D01*
X176184560Y-58078000D01*
X176184560Y-59778000D01*
X176228838Y-60013317D01*
X176367910Y-60229441D01*
X176580110Y-60374431D01*
X176832000Y-60425440D01*
X176943000Y-60425440D01*
X176943000Y-60877264D01*
X176917382Y-60902882D01*
X176724671Y-61191294D01*
X176657000Y-61531500D01*
X176657000Y-63919164D01*
X176504664Y-64071500D01*
X170991694Y-64071500D01*
X170988659Y-64068460D01*
X170629370Y-63919270D01*
X170240337Y-63918931D01*
X169880788Y-64067493D01*
X169605460Y-64342341D01*
X169456270Y-64701630D01*
X169455931Y-65090663D01*
X169604493Y-65450212D01*
X169879341Y-65725540D01*
X170238630Y-65874730D01*
X170627663Y-65875069D01*
X170689545Y-65849500D01*
X176339564Y-65849500D01*
X176904682Y-66414618D01*
X176942956Y-66440192D01*
X178409382Y-67906618D01*
X178697795Y-68099330D01*
X179038000Y-68167000D01*
X182956560Y-68167000D01*
X182956560Y-68278000D01*
X183000838Y-68513317D01*
X183139910Y-68729441D01*
X183352110Y-68874431D01*
X183604000Y-68925440D01*
X185204000Y-68925440D01*
X185439317Y-68881162D01*
X185655441Y-68742090D01*
X185800431Y-68529890D01*
X185851440Y-68278000D01*
X185851440Y-68167000D01*
X186013380Y-68167000D01*
X186304130Y-68287730D01*
X186693163Y-68288069D01*
X187052712Y-68139507D01*
X187328040Y-67864659D01*
X187477230Y-67505370D01*
X187477569Y-67116337D01*
X187329007Y-66756788D01*
X187054159Y-66481460D01*
X186694870Y-66332270D01*
X186305837Y-66331931D01*
X186167719Y-66389000D01*
X185851440Y-66389000D01*
X185851440Y-66278000D01*
X185807162Y-66042683D01*
X185668090Y-65826559D01*
X185455890Y-65681569D01*
X185204000Y-65630560D01*
X183604000Y-65630560D01*
X183368683Y-65674838D01*
X183152559Y-65813910D01*
X183007569Y-66026110D01*
X182956560Y-66278000D01*
X182956560Y-66389000D01*
X179406236Y-66389000D01*
X178897287Y-65880051D01*
X179115212Y-65790007D01*
X179390540Y-65515159D01*
X179539730Y-65155870D01*
X179540069Y-64766837D01*
X179391507Y-64407288D01*
X179116659Y-64131960D01*
X178757370Y-63982770D01*
X178498380Y-63982544D01*
X178435000Y-63919164D01*
X178435000Y-61899736D01*
X178460618Y-61874118D01*
X178637096Y-61610000D01*
X178653329Y-61585706D01*
X178721000Y-61245500D01*
X178721000Y-60425440D01*
X178832000Y-60425440D01*
X179067317Y-60381162D01*
X179283441Y-60242090D01*
X179428431Y-60029890D01*
X179479440Y-59778000D01*
X179479440Y-58078000D01*
X179435162Y-57842683D01*
X179296090Y-57626559D01*
X179083890Y-57481569D01*
X178832000Y-57430560D01*
X178816000Y-57430560D01*
X178816000Y-56503543D01*
X178924317Y-56483162D01*
X179140441Y-56344090D01*
X179285431Y-56131890D01*
X179336440Y-55880000D01*
X179336440Y-53848000D01*
X179292162Y-53612683D01*
X179153090Y-53396559D01*
X178940890Y-53251569D01*
X178766109Y-53216175D01*
X178748330Y-53126795D01*
X178555618Y-52838382D01*
X173101000Y-47383764D01*
X173101000Y-47078453D01*
X173271670Y-46964415D01*
X173482000Y-46649634D01*
X173692330Y-46964415D01*
X174178511Y-47289271D01*
X174752000Y-47403345D01*
X175325489Y-47289271D01*
X175811670Y-46964415D01*
X176022000Y-46649634D01*
X176232330Y-46964415D01*
X176718511Y-47289271D01*
X177292000Y-47403345D01*
X177865489Y-47289271D01*
X178351670Y-46964415D01*
X178562000Y-46649634D01*
X178772330Y-46964415D01*
X179258511Y-47289271D01*
X179832000Y-47403345D01*
X180405489Y-47289271D01*
X180891670Y-46964415D01*
X181102000Y-46649634D01*
X181312330Y-46964415D01*
X181610000Y-47163312D01*
X181610000Y-49976370D01*
X180690185Y-50896185D01*
X180525004Y-51143395D01*
X180467000Y-51435000D01*
X180467000Y-53200560D01*
X180231683Y-53244838D01*
X180015559Y-53383910D01*
X179870569Y-53596110D01*
X179819560Y-53848000D01*
X179819560Y-55880000D01*
X179863838Y-56115317D01*
X180002910Y-56331441D01*
X180215110Y-56476431D01*
X180467000Y-56527440D01*
X180467000Y-56769000D01*
X180525004Y-57060605D01*
X180661260Y-57264526D01*
X180690185Y-57307815D01*
X180815950Y-57433580D01*
X180596683Y-57474838D01*
X180380559Y-57613910D01*
X180235569Y-57826110D01*
X180184560Y-58078000D01*
X180184560Y-59778000D01*
X180228838Y-60013317D01*
X180367910Y-60229441D01*
X180580110Y-60374431D01*
X180832000Y-60425440D01*
X182832000Y-60425440D01*
X183067317Y-60381162D01*
X183283441Y-60242090D01*
X183297862Y-60220985D01*
X183341341Y-60264540D01*
X183700630Y-60413730D01*
X184089663Y-60414069D01*
X184449212Y-60265507D01*
X184724540Y-59990659D01*
X184873730Y-59631370D01*
X184874069Y-59242337D01*
X184725507Y-58882788D01*
X184450659Y-58607460D01*
X184091370Y-58458270D01*
X183995817Y-58458187D01*
X183926815Y-58389185D01*
X183679605Y-58224004D01*
X183479440Y-58184189D01*
X183479440Y-58078000D01*
X183435162Y-57842683D01*
X183296090Y-57626559D01*
X183083890Y-57481569D01*
X182832000Y-57430560D01*
X182594000Y-57430560D01*
X182594000Y-57372000D01*
X182535996Y-57080395D01*
X182468190Y-56978917D01*
X182370816Y-56833185D01*
X182053340Y-56515710D01*
X182226317Y-56483162D01*
X182442441Y-56344090D01*
X182587431Y-56131890D01*
X182638440Y-55880000D01*
X182638440Y-55626000D01*
X192786000Y-55626000D01*
X193077605Y-55567996D01*
X193324815Y-55402815D01*
X194155644Y-54571987D01*
X194249663Y-54572069D01*
X194609212Y-54423507D01*
X194884540Y-54148659D01*
X195033730Y-53789370D01*
X195034069Y-53400337D01*
X194885507Y-53040788D01*
X194610659Y-52765460D01*
X194251370Y-52616270D01*
X193862337Y-52615931D01*
X193502788Y-52764493D01*
X193227460Y-53039341D01*
X193078270Y-53398630D01*
X193078187Y-53494183D01*
X192470370Y-54102000D01*
X182638440Y-54102000D01*
X182638440Y-53848000D01*
X182594162Y-53612683D01*
X182455090Y-53396559D01*
X182242890Y-53251569D01*
X181991000Y-53200560D01*
X181991000Y-51750630D01*
X182910815Y-50830815D01*
X183075996Y-50583605D01*
X183134000Y-50292000D01*
X183134000Y-48603599D01*
X204004699Y-48603599D01*
X204268281Y-49241515D01*
X204755918Y-49730004D01*
X205393373Y-49994699D01*
X206083599Y-49995301D01*
X206721515Y-49731719D01*
X207210004Y-49244082D01*
X207474699Y-48606627D01*
X207475301Y-47916401D01*
X207211719Y-47278485D01*
X206724082Y-46789996D01*
X206086627Y-46525301D01*
X205396401Y-46524699D01*
X204758485Y-46788281D01*
X204269996Y-47275918D01*
X204005301Y-47913373D01*
X204004699Y-48603599D01*
X183134000Y-48603599D01*
X183134000Y-47163312D01*
X183431670Y-46964415D01*
X183642000Y-46649634D01*
X183852330Y-46964415D01*
X184338511Y-47289271D01*
X184912000Y-47403345D01*
X185485489Y-47289271D01*
X185971670Y-46964415D01*
X186182000Y-46649634D01*
X186392330Y-46964415D01*
X186878511Y-47289271D01*
X187452000Y-47403345D01*
X188025489Y-47289271D01*
X188511670Y-46964415D01*
X188722000Y-46649634D01*
X188932330Y-46964415D01*
X189418511Y-47289271D01*
X189992000Y-47403345D01*
X190565489Y-47289271D01*
X191051670Y-46964415D01*
X191061243Y-46950087D01*
X191065238Y-46971317D01*
X191204310Y-47187441D01*
X191416510Y-47332431D01*
X191668400Y-47383440D01*
X193395600Y-47383440D01*
X193630917Y-47339162D01*
X193847041Y-47200090D01*
X193992031Y-46987890D01*
X194043040Y-46736000D01*
X194043040Y-44704000D01*
X194033256Y-44652000D01*
X208840000Y-44652000D01*
X208840000Y-52162453D01*
X208530234Y-51955474D01*
X207956745Y-51841400D01*
X207587255Y-51841400D01*
X207013766Y-51955474D01*
X206527585Y-52280330D01*
X206202729Y-52766511D01*
X206088655Y-53340000D01*
X206202729Y-53913489D01*
X206527585Y-54399670D01*
X206842366Y-54610000D01*
X206527585Y-54820330D01*
X206202729Y-55306511D01*
X206088655Y-55880000D01*
X206202729Y-56453489D01*
X206527585Y-56939670D01*
X206842366Y-57150000D01*
X206527585Y-57360330D01*
X206202729Y-57846511D01*
X206088655Y-58420000D01*
X206202729Y-58993489D01*
X206527585Y-59479670D01*
X206842366Y-59690000D01*
X206527585Y-59900330D01*
X206328688Y-60198000D01*
X204216000Y-60198000D01*
X203924395Y-60256004D01*
X203729078Y-60386511D01*
X203677185Y-60421185D01*
X199106370Y-64992000D01*
X197789440Y-64992000D01*
X197789440Y-64754000D01*
X197745162Y-64518683D01*
X197606090Y-64302559D01*
X197393890Y-64157569D01*
X197142000Y-64106560D01*
X195542000Y-64106560D01*
X195306683Y-64150838D01*
X195090559Y-64289910D01*
X194945569Y-64502110D01*
X194894560Y-64754000D01*
X194894560Y-64992000D01*
X194645139Y-64992000D01*
X194610659Y-64957460D01*
X194251370Y-64808270D01*
X193862337Y-64807931D01*
X193502788Y-64956493D01*
X193227460Y-65231341D01*
X193078270Y-65590630D01*
X193077931Y-65979663D01*
X193226493Y-66339212D01*
X193501341Y-66614540D01*
X193860630Y-66763730D01*
X194249663Y-66764069D01*
X194609212Y-66615507D01*
X194708893Y-66516000D01*
X194894560Y-66516000D01*
X194894560Y-66754000D01*
X194938838Y-66989317D01*
X195077910Y-67205441D01*
X195290110Y-67350431D01*
X195542000Y-67401440D01*
X197142000Y-67401440D01*
X197377317Y-67357162D01*
X197593441Y-67218090D01*
X197738431Y-67005890D01*
X197789440Y-66754000D01*
X197789440Y-66516000D01*
X199422000Y-66516000D01*
X199713605Y-66457996D01*
X199960815Y-66292815D01*
X204531630Y-61722000D01*
X206328688Y-61722000D01*
X206527585Y-62019670D01*
X206842366Y-62230000D01*
X206527585Y-62440330D01*
X206202729Y-62926511D01*
X206088655Y-63500000D01*
X206202729Y-64073489D01*
X206527585Y-64559670D01*
X206842366Y-64770000D01*
X206527585Y-64980330D01*
X206202729Y-65466511D01*
X206088655Y-66040000D01*
X206202729Y-66613489D01*
X206527585Y-67099670D01*
X207013766Y-67424526D01*
X207587255Y-67538600D01*
X207956745Y-67538600D01*
X208530234Y-67424526D01*
X208840000Y-67217547D01*
X208840000Y-69619490D01*
X208788000Y-69608960D01*
X206756000Y-69608960D01*
X206520683Y-69653238D01*
X206304559Y-69792310D01*
X206159569Y-70004510D01*
X206108560Y-70256400D01*
X206108560Y-71983600D01*
X206152838Y-72218917D01*
X206291910Y-72435041D01*
X206504110Y-72580031D01*
X206756000Y-72631040D01*
X208788000Y-72631040D01*
X208840000Y-72621256D01*
X208840000Y-78411000D01*
X145744000Y-78411000D01*
X145744000Y-76543599D01*
X148124699Y-76543599D01*
X148388281Y-77181515D01*
X148875918Y-77670004D01*
X149513373Y-77934699D01*
X150203599Y-77935301D01*
X150841515Y-77671719D01*
X151330004Y-77184082D01*
X151594699Y-76546627D01*
X151595301Y-75856401D01*
X151331719Y-75218485D01*
X151297295Y-75184000D01*
X173240960Y-75184000D01*
X173240960Y-77216000D01*
X173285238Y-77451317D01*
X173424310Y-77667441D01*
X173636510Y-77812431D01*
X173888400Y-77863440D01*
X175615600Y-77863440D01*
X175850917Y-77819162D01*
X176067041Y-77680090D01*
X176212031Y-77467890D01*
X176220400Y-77426561D01*
X176232330Y-77444415D01*
X176718511Y-77769271D01*
X177292000Y-77883345D01*
X177865489Y-77769271D01*
X178351670Y-77444415D01*
X178562000Y-77129634D01*
X178772330Y-77444415D01*
X179258511Y-77769271D01*
X179832000Y-77883345D01*
X180405489Y-77769271D01*
X180891670Y-77444415D01*
X181102000Y-77129634D01*
X181312330Y-77444415D01*
X181798511Y-77769271D01*
X182372000Y-77883345D01*
X182945489Y-77769271D01*
X183431670Y-77444415D01*
X183642000Y-77129634D01*
X183852330Y-77444415D01*
X184338511Y-77769271D01*
X184912000Y-77883345D01*
X185485489Y-77769271D01*
X185971670Y-77444415D01*
X186182000Y-77129634D01*
X186392330Y-77444415D01*
X186878511Y-77769271D01*
X187452000Y-77883345D01*
X188025489Y-77769271D01*
X188511670Y-77444415D01*
X188722000Y-77129634D01*
X188932330Y-77444415D01*
X189418511Y-77769271D01*
X189992000Y-77883345D01*
X190565489Y-77769271D01*
X191051670Y-77444415D01*
X191262000Y-77129634D01*
X191472330Y-77444415D01*
X191958511Y-77769271D01*
X192532000Y-77883345D01*
X193105489Y-77769271D01*
X193591670Y-77444415D01*
X193916526Y-76958234D01*
X193999001Y-76543599D01*
X204004699Y-76543599D01*
X204268281Y-77181515D01*
X204755918Y-77670004D01*
X205393373Y-77934699D01*
X206083599Y-77935301D01*
X206721515Y-77671719D01*
X207210004Y-77184082D01*
X207474699Y-76546627D01*
X207475301Y-75856401D01*
X207211719Y-75218485D01*
X206724082Y-74729996D01*
X206086627Y-74465301D01*
X205396401Y-74464699D01*
X204758485Y-74728281D01*
X204269996Y-75215918D01*
X204005301Y-75853373D01*
X204004699Y-76543599D01*
X193999001Y-76543599D01*
X194030600Y-76384745D01*
X194030600Y-76015255D01*
X193916526Y-75441766D01*
X193591670Y-74955585D01*
X193105489Y-74630729D01*
X192532000Y-74516655D01*
X191958511Y-74630729D01*
X191472330Y-74955585D01*
X191262000Y-75270366D01*
X191051670Y-74955585D01*
X190565489Y-74630729D01*
X189992000Y-74516655D01*
X189418511Y-74630729D01*
X188932330Y-74955585D01*
X188722000Y-75270366D01*
X188511670Y-74955585D01*
X188025489Y-74630729D01*
X187452000Y-74516655D01*
X186878511Y-74630729D01*
X186392330Y-74955585D01*
X186182000Y-75270366D01*
X185971670Y-74955585D01*
X185485489Y-74630729D01*
X184912000Y-74516655D01*
X184338511Y-74630729D01*
X183852330Y-74955585D01*
X183642000Y-75270366D01*
X183431670Y-74955585D01*
X182945489Y-74630729D01*
X182372000Y-74516655D01*
X181798511Y-74630729D01*
X181312330Y-74955585D01*
X181102000Y-75270366D01*
X180891670Y-74955585D01*
X180405489Y-74630729D01*
X179832000Y-74516655D01*
X179258511Y-74630729D01*
X178772330Y-74955585D01*
X178562000Y-75270366D01*
X178351670Y-74955585D01*
X177865489Y-74630729D01*
X177292000Y-74516655D01*
X176718511Y-74630729D01*
X176232330Y-74955585D01*
X176222757Y-74969913D01*
X176218762Y-74948683D01*
X176079690Y-74732559D01*
X175867490Y-74587569D01*
X175615600Y-74536560D01*
X173888400Y-74536560D01*
X173653083Y-74580838D01*
X173436959Y-74719910D01*
X173291969Y-74932110D01*
X173240960Y-75184000D01*
X151297295Y-75184000D01*
X150844082Y-74729996D01*
X150206627Y-74465301D01*
X149516401Y-74464699D01*
X148878485Y-74728281D01*
X148389996Y-75215918D01*
X148125301Y-75853373D01*
X148124699Y-76543599D01*
X145744000Y-76543599D01*
X145744000Y-67217547D01*
X146053766Y-67424526D01*
X146627255Y-67538600D01*
X146996745Y-67538600D01*
X147570234Y-67424526D01*
X148056415Y-67099670D01*
X148381271Y-66613489D01*
X148495345Y-66040000D01*
X148381271Y-65466511D01*
X148056415Y-64980330D01*
X147741634Y-64770000D01*
X148056415Y-64559670D01*
X148381271Y-64073489D01*
X148495345Y-63500000D01*
X148381271Y-62926511D01*
X148056415Y-62440330D01*
X147741634Y-62230000D01*
X148056415Y-62019670D01*
X148381271Y-61533489D01*
X148495345Y-60960000D01*
X148381271Y-60386511D01*
X148330148Y-60310000D01*
X154658560Y-60310000D01*
X154658560Y-61610000D01*
X154702838Y-61845317D01*
X154841910Y-62061441D01*
X155054110Y-62206431D01*
X155306000Y-62257440D01*
X156606000Y-62257440D01*
X156841317Y-62213162D01*
X157057441Y-62074090D01*
X157202431Y-61861890D01*
X157253440Y-61610000D01*
X157253440Y-60310000D01*
X163802560Y-60310000D01*
X163802560Y-61610000D01*
X163846838Y-61845317D01*
X163985910Y-62061441D01*
X164198110Y-62206431D01*
X164450000Y-62257440D01*
X165750000Y-62257440D01*
X165985317Y-62213162D01*
X166201441Y-62074090D01*
X166346431Y-61861890D01*
X166397440Y-61610000D01*
X166397440Y-60310000D01*
X166353162Y-60074683D01*
X166214090Y-59858559D01*
X166001890Y-59713569D01*
X165750000Y-59662560D01*
X164450000Y-59662560D01*
X164214683Y-59706838D01*
X163998559Y-59845910D01*
X163853569Y-60058110D01*
X163802560Y-60310000D01*
X157253440Y-60310000D01*
X157209162Y-60074683D01*
X157070090Y-59858559D01*
X156857890Y-59713569D01*
X156606000Y-59662560D01*
X155306000Y-59662560D01*
X155070683Y-59706838D01*
X154854559Y-59845910D01*
X154709569Y-60058110D01*
X154658560Y-60310000D01*
X148330148Y-60310000D01*
X148056415Y-59900330D01*
X147741634Y-59690000D01*
X148056415Y-59479670D01*
X148381271Y-58993489D01*
X148495345Y-58420000D01*
X148381271Y-57846511D01*
X148056415Y-57360330D01*
X148042087Y-57350757D01*
X148063317Y-57346762D01*
X148279441Y-57207690D01*
X148424431Y-56995490D01*
X148475440Y-56743600D01*
X148475440Y-55016400D01*
X148431162Y-54781083D01*
X148292090Y-54564959D01*
X148079890Y-54419969D01*
X147828000Y-54368960D01*
X145796000Y-54368960D01*
X145744000Y-54378744D01*
X145744000Y-48603599D01*
X148124699Y-48603599D01*
X148388281Y-49241515D01*
X148875918Y-49730004D01*
X149513373Y-49994699D01*
X150203599Y-49995301D01*
X150841515Y-49731719D01*
X151330004Y-49244082D01*
X151594699Y-48606627D01*
X151595301Y-47916401D01*
X151331719Y-47278485D01*
X150844082Y-46789996D01*
X150206627Y-46525301D01*
X149516401Y-46524699D01*
X148878485Y-46788281D01*
X148389996Y-47275918D01*
X148125301Y-47913373D01*
X148124699Y-48603599D01*
X145744000Y-48603599D01*
X145744000Y-44652000D01*
X171034453Y-44652000D01*
X170827474Y-44961766D01*
X170827474Y-44961766D01*
G37*
X170827474Y-44961766D02*
X170713400Y-45535255D01*
X170713400Y-45904745D01*
X170827474Y-46478234D01*
X171152330Y-46964415D01*
X171323000Y-47078453D01*
X171323000Y-47752000D01*
X171390671Y-48092206D01*
X171583382Y-48380618D01*
X176662054Y-53459290D01*
X176568569Y-53596110D01*
X176517560Y-53848000D01*
X176517560Y-55880000D01*
X176561838Y-56115317D01*
X176700910Y-56331441D01*
X176913110Y-56476431D01*
X177038000Y-56501722D01*
X177038000Y-57430560D01*
X176832000Y-57430560D01*
X176596683Y-57474838D01*
X176380559Y-57613910D01*
X176235569Y-57826110D01*
X176184560Y-58078000D01*
X176184560Y-59778000D01*
X176228838Y-60013317D01*
X176367910Y-60229441D01*
X176580110Y-60374431D01*
X176832000Y-60425440D01*
X176943000Y-60425440D01*
X176943000Y-60877264D01*
X176917382Y-60902882D01*
X176724671Y-61191294D01*
X176657000Y-61531500D01*
X176657000Y-63919164D01*
X176504664Y-64071500D01*
X170991694Y-64071500D01*
X170988659Y-64068460D01*
X170629370Y-63919270D01*
X170240337Y-63918931D01*
X169880788Y-64067493D01*
X169605460Y-64342341D01*
X169456270Y-64701630D01*
X169455931Y-65090663D01*
X169604493Y-65450212D01*
X169879341Y-65725540D01*
X170238630Y-65874730D01*
X170627663Y-65875069D01*
X170689545Y-65849500D01*
X176339564Y-65849500D01*
X176904682Y-66414618D01*
X176942956Y-66440192D01*
X178409382Y-67906618D01*
X178697795Y-68099330D01*
X179038000Y-68167000D01*
X182956560Y-68167000D01*
X182956560Y-68278000D01*
X183000838Y-68513317D01*
X183139910Y-68729441D01*
X183352110Y-68874431D01*
X183604000Y-68925440D01*
X185204000Y-68925440D01*
X185439317Y-68881162D01*
X185655441Y-68742090D01*
X185800431Y-68529890D01*
X185851440Y-68278000D01*
X185851440Y-68167000D01*
X186013380Y-68167000D01*
X186304130Y-68287730D01*
X186693163Y-68288069D01*
X187052712Y-68139507D01*
X187328040Y-67864659D01*
X187477230Y-67505370D01*
X187477569Y-67116337D01*
X187329007Y-66756788D01*
X187054159Y-66481460D01*
X186694870Y-66332270D01*
X186305837Y-66331931D01*
X186167719Y-66389000D01*
X185851440Y-66389000D01*
X185851440Y-66278000D01*
X185807162Y-66042683D01*
X185668090Y-65826559D01*
X185455890Y-65681569D01*
X185204000Y-65630560D01*
X183604000Y-65630560D01*
X183368683Y-65674838D01*
X183152559Y-65813910D01*
X183007569Y-66026110D01*
X182956560Y-66278000D01*
X182956560Y-66389000D01*
X179406236Y-66389000D01*
X178897287Y-65880051D01*
X179115212Y-65790007D01*
X179390540Y-65515159D01*
X179539730Y-65155870D01*
X179540069Y-64766837D01*
X179391507Y-64407288D01*
X179116659Y-64131960D01*
X178757370Y-63982770D01*
X178498380Y-63982544D01*
X178435000Y-63919164D01*
X178435000Y-61899736D01*
X178460618Y-61874118D01*
X178637096Y-61610000D01*
X178653329Y-61585706D01*
X178721000Y-61245500D01*
X178721000Y-60425440D01*
X178832000Y-60425440D01*
X179067317Y-60381162D01*
X179283441Y-60242090D01*
X179428431Y-60029890D01*
X179479440Y-59778000D01*
X179479440Y-58078000D01*
X179435162Y-57842683D01*
X179296090Y-57626559D01*
X179083890Y-57481569D01*
X178832000Y-57430560D01*
X178816000Y-57430560D01*
X178816000Y-56503543D01*
X178924317Y-56483162D01*
X179140441Y-56344090D01*
X179285431Y-56131890D01*
X179336440Y-55880000D01*
X179336440Y-53848000D01*
X179292162Y-53612683D01*
X179153090Y-53396559D01*
X178940890Y-53251569D01*
X178766109Y-53216175D01*
X178748330Y-53126795D01*
X178555618Y-52838382D01*
X173101000Y-47383764D01*
X173101000Y-47078453D01*
X173271670Y-46964415D01*
X173482000Y-46649634D01*
X173692330Y-46964415D01*
X174178511Y-47289271D01*
X174752000Y-47403345D01*
X175325489Y-47289271D01*
X175811670Y-46964415D01*
X176022000Y-46649634D01*
X176232330Y-46964415D01*
X176718511Y-47289271D01*
X177292000Y-47403345D01*
X177865489Y-47289271D01*
X178351670Y-46964415D01*
X178562000Y-46649634D01*
X178772330Y-46964415D01*
X179258511Y-47289271D01*
X179832000Y-47403345D01*
X180405489Y-47289271D01*
X180891670Y-46964415D01*
X181102000Y-46649634D01*
X181312330Y-46964415D01*
X181610000Y-47163312D01*
X181610000Y-49976370D01*
X180690185Y-50896185D01*
X180525004Y-51143395D01*
X180467000Y-51435000D01*
X180467000Y-53200560D01*
X180231683Y-53244838D01*
X180015559Y-53383910D01*
X179870569Y-53596110D01*
X179819560Y-53848000D01*
X179819560Y-55880000D01*
X179863838Y-56115317D01*
X180002910Y-56331441D01*
X180215110Y-56476431D01*
X180467000Y-56527440D01*
X180467000Y-56769000D01*
X180525004Y-57060605D01*
X180661260Y-57264526D01*
X180690185Y-57307815D01*
X180815950Y-57433580D01*
X180596683Y-57474838D01*
X180380559Y-57613910D01*
X180235569Y-57826110D01*
X180184560Y-58078000D01*
X180184560Y-59778000D01*
X180228838Y-60013317D01*
X180367910Y-60229441D01*
X180580110Y-60374431D01*
X180832000Y-60425440D01*
X182832000Y-60425440D01*
X183067317Y-60381162D01*
X183283441Y-60242090D01*
X183297862Y-60220985D01*
X183341341Y-60264540D01*
X183700630Y-60413730D01*
X184089663Y-60414069D01*
X184449212Y-60265507D01*
X184724540Y-59990659D01*
X184873730Y-59631370D01*
X184874069Y-59242337D01*
X184725507Y-58882788D01*
X184450659Y-58607460D01*
X184091370Y-58458270D01*
X183995817Y-58458187D01*
X183926815Y-58389185D01*
X183679605Y-58224004D01*
X183479440Y-58184189D01*
X183479440Y-58078000D01*
X183435162Y-57842683D01*
X183296090Y-57626559D01*
X183083890Y-57481569D01*
X182832000Y-57430560D01*
X182594000Y-57430560D01*
X182594000Y-57372000D01*
X182535996Y-57080395D01*
X182468190Y-56978917D01*
X182370816Y-56833185D01*
X182053340Y-56515710D01*
X182226317Y-56483162D01*
X182442441Y-56344090D01*
X182587431Y-56131890D01*
X182638440Y-55880000D01*
X182638440Y-55626000D01*
X192786000Y-55626000D01*
X193077605Y-55567996D01*
X193324815Y-55402815D01*
X194155644Y-54571987D01*
X194249663Y-54572069D01*
X194609212Y-54423507D01*
X194884540Y-54148659D01*
X195033730Y-53789370D01*
X195034069Y-53400337D01*
X194885507Y-53040788D01*
X194610659Y-52765460D01*
X194251370Y-52616270D01*
X193862337Y-52615931D01*
X193502788Y-52764493D01*
X193227460Y-53039341D01*
X193078270Y-53398630D01*
X193078187Y-53494183D01*
X192470370Y-54102000D01*
X182638440Y-54102000D01*
X182638440Y-53848000D01*
X182594162Y-53612683D01*
X182455090Y-53396559D01*
X182242890Y-53251569D01*
X181991000Y-53200560D01*
X181991000Y-51750630D01*
X182910815Y-50830815D01*
X183075996Y-50583605D01*
X183134000Y-50292000D01*
X183134000Y-48603599D01*
X204004699Y-48603599D01*
X204268281Y-49241515D01*
X204755918Y-49730004D01*
X205393373Y-49994699D01*
X206083599Y-49995301D01*
X206721515Y-49731719D01*
X207210004Y-49244082D01*
X207474699Y-48606627D01*
X207475301Y-47916401D01*
X207211719Y-47278485D01*
X206724082Y-46789996D01*
X206086627Y-46525301D01*
X205396401Y-46524699D01*
X204758485Y-46788281D01*
X204269996Y-47275918D01*
X204005301Y-47913373D01*
X204004699Y-48603599D01*
X183134000Y-48603599D01*
X183134000Y-47163312D01*
X183431670Y-46964415D01*
X183642000Y-46649634D01*
X183852330Y-46964415D01*
X184338511Y-47289271D01*
X184912000Y-47403345D01*
X185485489Y-47289271D01*
X185971670Y-46964415D01*
X186182000Y-46649634D01*
X186392330Y-46964415D01*
X186878511Y-47289271D01*
X187452000Y-47403345D01*
X188025489Y-47289271D01*
X188511670Y-46964415D01*
X188722000Y-46649634D01*
X188932330Y-46964415D01*
X189418511Y-47289271D01*
X189992000Y-47403345D01*
X190565489Y-47289271D01*
X191051670Y-46964415D01*
X191061243Y-46950087D01*
X191065238Y-46971317D01*
X191204310Y-47187441D01*
X191416510Y-47332431D01*
X191668400Y-47383440D01*
X193395600Y-47383440D01*
X193630917Y-47339162D01*
X193847041Y-47200090D01*
X193992031Y-46987890D01*
X194043040Y-46736000D01*
X194043040Y-44704000D01*
X194033256Y-44652000D01*
X208840000Y-44652000D01*
X208840000Y-52162453D01*
X208530234Y-51955474D01*
X207956745Y-51841400D01*
X207587255Y-51841400D01*
X207013766Y-51955474D01*
X206527585Y-52280330D01*
X206202729Y-52766511D01*
X206088655Y-53340000D01*
X206202729Y-53913489D01*
X206527585Y-54399670D01*
X206842366Y-54610000D01*
X206527585Y-54820330D01*
X206202729Y-55306511D01*
X206088655Y-55880000D01*
X206202729Y-56453489D01*
X206527585Y-56939670D01*
X206842366Y-57150000D01*
X206527585Y-57360330D01*
X206202729Y-57846511D01*
X206088655Y-58420000D01*
X206202729Y-58993489D01*
X206527585Y-59479670D01*
X206842366Y-59690000D01*
X206527585Y-59900330D01*
X206328688Y-60198000D01*
X204216000Y-60198000D01*
X203924395Y-60256004D01*
X203729078Y-60386511D01*
X203677185Y-60421185D01*
X199106370Y-64992000D01*
X197789440Y-64992000D01*
X197789440Y-64754000D01*
X197745162Y-64518683D01*
X197606090Y-64302559D01*
X197393890Y-64157569D01*
X197142000Y-64106560D01*
X195542000Y-64106560D01*
X195306683Y-64150838D01*
X195090559Y-64289910D01*
X194945569Y-64502110D01*
X194894560Y-64754000D01*
X194894560Y-64992000D01*
X194645139Y-64992000D01*
X194610659Y-64957460D01*
X194251370Y-64808270D01*
X193862337Y-64807931D01*
X193502788Y-64956493D01*
X193227460Y-65231341D01*
X193078270Y-65590630D01*
X193077931Y-65979663D01*
X193226493Y-66339212D01*
X193501341Y-66614540D01*
X193860630Y-66763730D01*
X194249663Y-66764069D01*
X194609212Y-66615507D01*
X194708893Y-66516000D01*
X194894560Y-66516000D01*
X194894560Y-66754000D01*
X194938838Y-66989317D01*
X195077910Y-67205441D01*
X195290110Y-67350431D01*
X195542000Y-67401440D01*
X197142000Y-67401440D01*
X197377317Y-67357162D01*
X197593441Y-67218090D01*
X197738431Y-67005890D01*
X197789440Y-66754000D01*
X197789440Y-66516000D01*
X199422000Y-66516000D01*
X199713605Y-66457996D01*
X199960815Y-66292815D01*
X204531630Y-61722000D01*
X206328688Y-61722000D01*
X206527585Y-62019670D01*
X206842366Y-62230000D01*
X206527585Y-62440330D01*
X206202729Y-62926511D01*
X206088655Y-63500000D01*
X206202729Y-64073489D01*
X206527585Y-64559670D01*
X206842366Y-64770000D01*
X206527585Y-64980330D01*
X206202729Y-65466511D01*
X206088655Y-66040000D01*
X206202729Y-66613489D01*
X206527585Y-67099670D01*
X207013766Y-67424526D01*
X207587255Y-67538600D01*
X207956745Y-67538600D01*
X208530234Y-67424526D01*
X208840000Y-67217547D01*
X208840000Y-69619490D01*
X208788000Y-69608960D01*
X206756000Y-69608960D01*
X206520683Y-69653238D01*
X206304559Y-69792310D01*
X206159569Y-70004510D01*
X206108560Y-70256400D01*
X206108560Y-71983600D01*
X206152838Y-72218917D01*
X206291910Y-72435041D01*
X206504110Y-72580031D01*
X206756000Y-72631040D01*
X208788000Y-72631040D01*
X208840000Y-72621256D01*
X208840000Y-78411000D01*
X145744000Y-78411000D01*
X145744000Y-76543599D01*
X148124699Y-76543599D01*
X148388281Y-77181515D01*
X148875918Y-77670004D01*
X149513373Y-77934699D01*
X150203599Y-77935301D01*
X150841515Y-77671719D01*
X151330004Y-77184082D01*
X151594699Y-76546627D01*
X151595301Y-75856401D01*
X151331719Y-75218485D01*
X151297295Y-75184000D01*
X173240960Y-75184000D01*
X173240960Y-77216000D01*
X173285238Y-77451317D01*
X173424310Y-77667441D01*
X173636510Y-77812431D01*
X173888400Y-77863440D01*
X175615600Y-77863440D01*
X175850917Y-77819162D01*
X176067041Y-77680090D01*
X176212031Y-77467890D01*
X176220400Y-77426561D01*
X176232330Y-77444415D01*
X176718511Y-77769271D01*
X177292000Y-77883345D01*
X177865489Y-77769271D01*
X178351670Y-77444415D01*
X178562000Y-77129634D01*
X178772330Y-77444415D01*
X179258511Y-77769271D01*
X179832000Y-77883345D01*
X180405489Y-77769271D01*
X180891670Y-77444415D01*
X181102000Y-77129634D01*
X181312330Y-77444415D01*
X181798511Y-77769271D01*
X182372000Y-77883345D01*
X182945489Y-77769271D01*
X183431670Y-77444415D01*
X183642000Y-77129634D01*
X183852330Y-77444415D01*
X184338511Y-77769271D01*
X184912000Y-77883345D01*
X185485489Y-77769271D01*
X185971670Y-77444415D01*
X186182000Y-77129634D01*
X186392330Y-77444415D01*
X186878511Y-77769271D01*
X187452000Y-77883345D01*
X188025489Y-77769271D01*
X188511670Y-77444415D01*
X188722000Y-77129634D01*
X188932330Y-77444415D01*
X189418511Y-77769271D01*
X189992000Y-77883345D01*
X190565489Y-77769271D01*
X191051670Y-77444415D01*
X191262000Y-77129634D01*
X191472330Y-77444415D01*
X191958511Y-77769271D01*
X192532000Y-77883345D01*
X193105489Y-77769271D01*
X193591670Y-77444415D01*
X193916526Y-76958234D01*
X193999001Y-76543599D01*
X204004699Y-76543599D01*
X204268281Y-77181515D01*
X204755918Y-77670004D01*
X205393373Y-77934699D01*
X206083599Y-77935301D01*
X206721515Y-77671719D01*
X207210004Y-77184082D01*
X207474699Y-76546627D01*
X207475301Y-75856401D01*
X207211719Y-75218485D01*
X206724082Y-74729996D01*
X206086627Y-74465301D01*
X205396401Y-74464699D01*
X204758485Y-74728281D01*
X204269996Y-75215918D01*
X204005301Y-75853373D01*
X204004699Y-76543599D01*
X193999001Y-76543599D01*
X194030600Y-76384745D01*
X194030600Y-76015255D01*
X193916526Y-75441766D01*
X193591670Y-74955585D01*
X193105489Y-74630729D01*
X192532000Y-74516655D01*
X191958511Y-74630729D01*
X191472330Y-74955585D01*
X191262000Y-75270366D01*
X191051670Y-74955585D01*
X190565489Y-74630729D01*
X189992000Y-74516655D01*
X189418511Y-74630729D01*
X188932330Y-74955585D01*
X188722000Y-75270366D01*
X188511670Y-74955585D01*
X188025489Y-74630729D01*
X187452000Y-74516655D01*
X186878511Y-74630729D01*
X186392330Y-74955585D01*
X186182000Y-75270366D01*
X185971670Y-74955585D01*
X185485489Y-74630729D01*
X184912000Y-74516655D01*
X184338511Y-74630729D01*
X183852330Y-74955585D01*
X183642000Y-75270366D01*
X183431670Y-74955585D01*
X182945489Y-74630729D01*
X182372000Y-74516655D01*
X181798511Y-74630729D01*
X181312330Y-74955585D01*
X181102000Y-75270366D01*
X180891670Y-74955585D01*
X180405489Y-74630729D01*
X179832000Y-74516655D01*
X179258511Y-74630729D01*
X178772330Y-74955585D01*
X178562000Y-75270366D01*
X178351670Y-74955585D01*
X177865489Y-74630729D01*
X177292000Y-74516655D01*
X176718511Y-74630729D01*
X176232330Y-74955585D01*
X176222757Y-74969913D01*
X176218762Y-74948683D01*
X176079690Y-74732559D01*
X175867490Y-74587569D01*
X175615600Y-74536560D01*
X173888400Y-74536560D01*
X173653083Y-74580838D01*
X173436959Y-74719910D01*
X173291969Y-74932110D01*
X173240960Y-75184000D01*
X151297295Y-75184000D01*
X150844082Y-74729996D01*
X150206627Y-74465301D01*
X149516401Y-74464699D01*
X148878485Y-74728281D01*
X148389996Y-75215918D01*
X148125301Y-75853373D01*
X148124699Y-76543599D01*
X145744000Y-76543599D01*
X145744000Y-67217547D01*
X146053766Y-67424526D01*
X146627255Y-67538600D01*
X146996745Y-67538600D01*
X147570234Y-67424526D01*
X148056415Y-67099670D01*
X148381271Y-66613489D01*
X148495345Y-66040000D01*
X148381271Y-65466511D01*
X148056415Y-64980330D01*
X147741634Y-64770000D01*
X148056415Y-64559670D01*
X148381271Y-64073489D01*
X148495345Y-63500000D01*
X148381271Y-62926511D01*
X148056415Y-62440330D01*
X147741634Y-62230000D01*
X148056415Y-62019670D01*
X148381271Y-61533489D01*
X148495345Y-60960000D01*
X148381271Y-60386511D01*
X148330148Y-60310000D01*
X154658560Y-60310000D01*
X154658560Y-61610000D01*
X154702838Y-61845317D01*
X154841910Y-62061441D01*
X155054110Y-62206431D01*
X155306000Y-62257440D01*
X156606000Y-62257440D01*
X156841317Y-62213162D01*
X157057441Y-62074090D01*
X157202431Y-61861890D01*
X157253440Y-61610000D01*
X157253440Y-60310000D01*
X163802560Y-60310000D01*
X163802560Y-61610000D01*
X163846838Y-61845317D01*
X163985910Y-62061441D01*
X164198110Y-62206431D01*
X164450000Y-62257440D01*
X165750000Y-62257440D01*
X165985317Y-62213162D01*
X166201441Y-62074090D01*
X166346431Y-61861890D01*
X166397440Y-61610000D01*
X166397440Y-60310000D01*
X166353162Y-60074683D01*
X166214090Y-59858559D01*
X166001890Y-59713569D01*
X165750000Y-59662560D01*
X164450000Y-59662560D01*
X164214683Y-59706838D01*
X163998559Y-59845910D01*
X163853569Y-60058110D01*
X163802560Y-60310000D01*
X157253440Y-60310000D01*
X157209162Y-60074683D01*
X157070090Y-59858559D01*
X156857890Y-59713569D01*
X156606000Y-59662560D01*
X155306000Y-59662560D01*
X155070683Y-59706838D01*
X154854559Y-59845910D01*
X154709569Y-60058110D01*
X154658560Y-60310000D01*
X148330148Y-60310000D01*
X148056415Y-59900330D01*
X147741634Y-59690000D01*
X148056415Y-59479670D01*
X148381271Y-58993489D01*
X148495345Y-58420000D01*
X148381271Y-57846511D01*
X148056415Y-57360330D01*
X148042087Y-57350757D01*
X148063317Y-57346762D01*
X148279441Y-57207690D01*
X148424431Y-56995490D01*
X148475440Y-56743600D01*
X148475440Y-55016400D01*
X148431162Y-54781083D01*
X148292090Y-54564959D01*
X148079890Y-54419969D01*
X147828000Y-54368960D01*
X145796000Y-54368960D01*
X145744000Y-54378744D01*
X145744000Y-48603599D01*
X148124699Y-48603599D01*
X148388281Y-49241515D01*
X148875918Y-49730004D01*
X149513373Y-49994699D01*
X150203599Y-49995301D01*
X150841515Y-49731719D01*
X151330004Y-49244082D01*
X151594699Y-48606627D01*
X151595301Y-47916401D01*
X151331719Y-47278485D01*
X150844082Y-46789996D01*
X150206627Y-46525301D01*
X149516401Y-46524699D01*
X148878485Y-46788281D01*
X148389996Y-47275918D01*
X148125301Y-47913373D01*
X148124699Y-48603599D01*
X145744000Y-48603599D01*
X145744000Y-44652000D01*
X171034453Y-44652000D01*
X170827474Y-44961766D01*
M02*
