G04 #@! TF.FileFunction,Soldermask,Bot*
%FSLAX46Y46*%
G04 Gerber Fmt 4.6, Leading zero omitted, Abs format (unit mm)*
G04 Created by KiCad (PCBNEW 4.0.1-stable) date 9/12/2016 12:56:57 PM*
%MOMM*%
G01*
G04 APERTURE LIST*
%ADD10C,0.100000*%
%ADD11R,1.700000X1.700000*%
%ADD12C,1.700000*%
%ADD13R,2.000000X2.400000*%
%ADD14R,1.924000X2.432000*%
%ADD15R,2.432000X2.127200*%
%ADD16O,2.432000X2.127200*%
%ADD17R,2.127200X2.432000*%
%ADD18O,2.127200X2.432000*%
%ADD19R,2.400000X2.100000*%
%ADD20C,2.600000*%
G04 APERTURE END LIST*
D10*
D11*
X155956000Y-60960000D03*
D12*
X155956000Y-58960000D03*
D11*
X165100000Y-60960000D03*
D12*
X165100000Y-58960000D03*
D13*
X196342000Y-65754000D03*
X196342000Y-61754000D03*
X184404000Y-63278000D03*
X184404000Y-67278000D03*
D14*
X177927000Y-54864000D03*
X181229000Y-54864000D03*
D15*
X146812000Y-55880000D03*
D16*
X146812000Y-58420000D03*
X146812000Y-60960000D03*
X146812000Y-63500000D03*
X146812000Y-66040000D03*
X146812000Y-68580000D03*
D17*
X174752000Y-76200000D03*
D18*
X177292000Y-76200000D03*
X179832000Y-76200000D03*
X182372000Y-76200000D03*
X184912000Y-76200000D03*
X187452000Y-76200000D03*
X189992000Y-76200000D03*
X192532000Y-76200000D03*
D19*
X177832000Y-58928000D03*
X181832000Y-58928000D03*
D17*
X192532000Y-45720000D03*
D18*
X189992000Y-45720000D03*
X187452000Y-45720000D03*
X184912000Y-45720000D03*
X182372000Y-45720000D03*
X179832000Y-45720000D03*
X177292000Y-45720000D03*
X174752000Y-45720000D03*
X172212000Y-45720000D03*
X169672000Y-45720000D03*
D15*
X207772000Y-71120000D03*
D16*
X207772000Y-68580000D03*
X207772000Y-66040000D03*
X207772000Y-63500000D03*
X207772000Y-60960000D03*
X207772000Y-58420000D03*
X207772000Y-55880000D03*
X207772000Y-53340000D03*
D20*
X149860000Y-76200000D03*
X149860000Y-48260000D03*
X205740000Y-48260000D03*
X205740000Y-76200000D03*
M02*
