M48
;DRILL file {KiCad 4.0.1-stable} date 9/12/2016 12:56:59 PM
;FORMAT={2:4/ absolute / inch / suppress trailing zeros}
FMAT,2
INCH,LZ
T1C0.013
T2C0.031
T3C0.040
T4C0.087
%
G90
G05
M72
T1
X0612Y-026
X0643Y-0265
X0661Y-028
X0671Y-02555
X0672Y-0269
X0703Y-025575
X07165Y-025625
X0724Y-0234
X073425Y-0265
X075Y-0256
X0764Y-0211
X0764Y-0259
X07645Y-02285
T2
X0614Y-023213
X0614Y-024
X065Y-023213
X065Y-024
T3
X0578Y-022
X0578Y-023
X0578Y-024
X0578Y-025
X0578Y-026
X0578Y-027
X0668Y-018
X0678Y-018
X0688Y-018
X0688Y-03
X0698Y-018
X0698Y-03
X0708Y-018
X0708Y-03
X0718Y-018
X0718Y-03
X0728Y-018
X0728Y-03
X0738Y-018
X0738Y-03
X0748Y-018
X0748Y-03
X0758Y-018
X0758Y-03
X0818Y-021
X0818Y-022
X0818Y-023
X0818Y-024
X0818Y-025
X0818Y-026
X0818Y-027
X0818Y-028
T4
X059Y-019
X059Y-03
X081Y-019
X081Y-03
T0
M30
