G04 #@! TF.FileFunction,Copper,L1,Top,Signal*
%FSLAX46Y46*%
G04 Gerber Fmt 4.6, Leading zero omitted, Abs format (unit mm)*
G04 Created by KiCad (PCBNEW 4.0.1-stable) date 9/12/2016 12:56:57 PM*
%MOMM*%
G01*
G04 APERTURE LIST*
%ADD10C,0.100000*%
%ADD11R,1.300000X1.300000*%
%ADD12C,1.300000*%
%ADD13R,1.600000X2.000000*%
%ADD14R,2.032000X1.727200*%
%ADD15O,2.032000X1.727200*%
%ADD16R,1.727200X2.032000*%
%ADD17O,1.727200X2.032000*%
%ADD18R,1.200000X0.700000*%
%ADD19R,1.650000X1.400000*%
%ADD20R,3.657600X2.032000*%
%ADD21R,1.016000X2.032000*%
%ADD22R,2.100000X0.300000*%
%ADD23R,1.600000X0.550000*%
%ADD24R,0.550000X1.600000*%
%ADD25C,0.685800*%
%ADD26C,0.508000*%
%ADD27C,0.254000*%
G04 APERTURE END LIST*
D10*
D11*
X155956000Y-60960000D03*
D12*
X155956000Y-58960000D03*
D11*
X165100000Y-60960000D03*
D12*
X165100000Y-58960000D03*
D13*
X167894000Y-64929000D03*
X167894000Y-68929000D03*
D14*
X146812000Y-55880000D03*
D15*
X146812000Y-58420000D03*
X146812000Y-60960000D03*
X146812000Y-63500000D03*
X146812000Y-66040000D03*
X146812000Y-68580000D03*
D16*
X174752000Y-76200000D03*
D17*
X177292000Y-76200000D03*
X179832000Y-76200000D03*
X182372000Y-76200000D03*
X184912000Y-76200000D03*
X187452000Y-76200000D03*
X189992000Y-76200000D03*
X192532000Y-76200000D03*
D18*
X150322000Y-65024000D03*
X153022000Y-65974000D03*
X153022000Y-64074000D03*
D19*
X202135000Y-51302000D03*
X202135000Y-56013000D03*
X194105000Y-56013000D03*
X194105000Y-51302000D03*
D20*
X161036000Y-71374000D03*
D21*
X161036000Y-64770000D03*
X158750000Y-64770000D03*
X163322000Y-64770000D03*
D22*
X173228000Y-69276000D03*
X173228000Y-67376000D03*
X173228000Y-68326000D03*
D23*
X180037001Y-62541000D03*
X180037001Y-63341000D03*
X180037001Y-64141000D03*
X180037001Y-64941000D03*
X180037001Y-65741000D03*
X180037001Y-66541000D03*
X180037001Y-67341000D03*
X180037001Y-68141000D03*
D24*
X181487001Y-69591000D03*
X182287001Y-69591000D03*
X183087001Y-69591000D03*
X183887001Y-69591000D03*
X184687001Y-69591000D03*
X185487001Y-69591000D03*
X186287001Y-69591000D03*
X187087001Y-69591000D03*
D23*
X188537001Y-68141000D03*
X188537001Y-67341000D03*
X188537001Y-66541000D03*
X188537001Y-65741000D03*
X188537001Y-64941000D03*
X188537001Y-64141000D03*
X188537001Y-63341000D03*
X188537001Y-62541000D03*
D24*
X187087001Y-61091000D03*
X186287001Y-61091000D03*
X185487001Y-61091000D03*
X184687001Y-61091000D03*
X183887001Y-61091000D03*
X183087001Y-61091000D03*
X182287001Y-61091000D03*
X181487001Y-61091000D03*
D16*
X192532000Y-45720000D03*
D17*
X189992000Y-45720000D03*
X187452000Y-45720000D03*
X184912000Y-45720000D03*
X182372000Y-45720000D03*
X179832000Y-45720000D03*
X177292000Y-45720000D03*
X174752000Y-45720000D03*
X172212000Y-45720000D03*
X169672000Y-45720000D03*
D14*
X207772000Y-71120000D03*
D15*
X207772000Y-68580000D03*
X207772000Y-66040000D03*
X207772000Y-63500000D03*
X207772000Y-60960000D03*
X207772000Y-58420000D03*
X207772000Y-55880000D03*
X207772000Y-53340000D03*
D25*
X194183000Y-58039000D03*
X181991000Y-65087500D03*
X155448000Y-66040000D03*
X170688000Y-68326000D03*
X167894000Y-71120000D03*
X163322000Y-67310000D03*
X190500000Y-65024000D03*
X186499500Y-67310000D03*
X170434000Y-64897000D03*
X178562000Y-64960500D03*
X194056000Y-65786000D03*
X194056000Y-53594000D03*
X183896000Y-59436000D03*
D26*
X155956000Y-60960000D02*
X157480000Y-60960000D01*
X158750000Y-62230000D02*
X158750000Y-64770000D01*
X157480000Y-60960000D02*
X158750000Y-62230000D01*
X153022000Y-64074000D02*
X153022000Y-62370000D01*
X154432000Y-60960000D02*
X155956000Y-60960000D01*
X153022000Y-62370000D02*
X154432000Y-60960000D01*
D27*
X194105000Y-56013000D02*
X194105000Y-57961000D01*
X194105000Y-57961000D02*
X194183000Y-58039000D01*
X202135000Y-56013000D02*
X194105000Y-56013000D01*
X180037001Y-65741000D02*
X181337500Y-65741000D01*
X181337500Y-65741000D02*
X181991000Y-65087500D01*
X153022000Y-65974000D02*
X155382000Y-65974000D01*
X155382000Y-65974000D02*
X155448000Y-66040000D01*
X173228000Y-68326000D02*
X170688000Y-68326000D01*
X167894000Y-68929000D02*
X167894000Y-71120000D01*
X163322000Y-64770000D02*
X163322000Y-67310000D01*
X188537001Y-64941000D02*
X190417000Y-64941000D01*
X190417000Y-64941000D02*
X190500000Y-65024000D01*
D26*
X188537001Y-67341000D02*
X202407000Y-67341000D01*
X203708000Y-66040000D02*
X207772000Y-66040000D01*
X202407000Y-67341000D02*
X203708000Y-66040000D01*
X165100000Y-60960000D02*
X166624000Y-60960000D01*
X167894000Y-62230000D02*
X167894000Y-64929000D01*
X166624000Y-60960000D02*
X167894000Y-62230000D01*
X161036000Y-64770000D02*
X161036000Y-62484000D01*
X162560000Y-60960000D02*
X165100000Y-60960000D01*
X161036000Y-62484000D02*
X162560000Y-60960000D01*
X167894000Y-64008000D02*
X167894000Y-64929000D01*
X186499500Y-67310000D02*
X186530500Y-67341000D01*
X186530500Y-67341000D02*
X188537001Y-67341000D01*
X167894000Y-64929000D02*
X170402000Y-64929000D01*
X170402000Y-64929000D02*
X170434000Y-64897000D01*
X178581500Y-64941000D02*
X180037001Y-64941000D01*
X178562000Y-64960500D02*
X178581500Y-64941000D01*
D27*
X167862000Y-64897000D02*
X167894000Y-64929000D01*
X194011000Y-65741000D02*
X194056000Y-65786000D01*
X188537001Y-65741000D02*
X194011000Y-65741000D01*
X194105000Y-51302000D02*
X202135000Y-51302000D01*
X194105000Y-53545000D02*
X194105000Y-51302000D01*
X194056000Y-53594000D02*
X194105000Y-53545000D01*
X183887001Y-59444999D02*
X183896000Y-59436000D01*
X183887001Y-61091000D02*
X183887001Y-59444999D01*
X187087001Y-61091000D02*
X187087001Y-58276999D01*
X187087001Y-58276999D02*
X192532000Y-52832000D01*
X192532000Y-52832000D02*
X192532000Y-45720000D01*
X186287001Y-57806999D02*
X189992000Y-54102000D01*
X186287001Y-61091000D02*
X186287001Y-57806999D01*
X189992000Y-54102000D02*
X189992000Y-45720000D01*
X185487001Y-61091000D02*
X185487001Y-57082999D01*
X187452000Y-55118000D02*
X187452000Y-45720000D01*
X185487001Y-57082999D02*
X187452000Y-55118000D01*
X184687001Y-61091000D02*
X184687001Y-45944999D01*
X184687001Y-45944999D02*
X184912000Y-45720000D01*
X183087001Y-61091000D02*
X183087001Y-58627001D01*
X183087001Y-58627001D02*
X179832000Y-55372000D01*
X179832000Y-55372000D02*
X179832000Y-45720000D01*
X182287001Y-59351001D02*
X177292000Y-54356000D01*
X182287001Y-61091000D02*
X182287001Y-59351001D01*
X177292000Y-54356000D02*
X177292000Y-45720000D01*
X159004000Y-55118000D02*
X167386000Y-55118000D01*
X153162000Y-55880000D02*
X153924000Y-55118000D01*
X146812000Y-55880000D02*
X153162000Y-55880000D01*
X153924000Y-55118000D02*
X159004000Y-55118000D01*
X174809000Y-62541000D02*
X180037001Y-62541000D01*
X167386000Y-55118000D02*
X174809000Y-62541000D01*
X159004000Y-55880000D02*
X166878000Y-55880000D01*
X151892000Y-58420000D02*
X154432000Y-55880000D01*
X146812000Y-58420000D02*
X151892000Y-58420000D01*
X154432000Y-55880000D02*
X159004000Y-55880000D01*
X174339000Y-63341000D02*
X180037001Y-63341000D01*
X166878000Y-55880000D02*
X174339000Y-63341000D01*
X159004000Y-56642000D02*
X166370000Y-56642000D01*
X150368000Y-60960000D02*
X154686000Y-56642000D01*
X146812000Y-60960000D02*
X150368000Y-60960000D01*
X154686000Y-56642000D02*
X159004000Y-56642000D01*
X173869000Y-64141000D02*
X180037001Y-64141000D01*
X166370000Y-56642000D02*
X173869000Y-64141000D01*
D26*
X150322000Y-65024000D02*
X150322000Y-65578000D01*
X149860000Y-66040000D02*
X146812000Y-66040000D01*
X150322000Y-65578000D02*
X149860000Y-66040000D01*
D27*
X181487001Y-69591000D02*
X181361000Y-69591000D01*
X181361000Y-69591000D02*
X174752000Y-76200000D01*
X182287001Y-69591000D02*
X182287001Y-71204999D01*
X182287001Y-71204999D02*
X177292000Y-76200000D01*
X183087001Y-69591000D02*
X183087001Y-71928999D01*
X183087001Y-71928999D02*
X179832000Y-75184000D01*
X179832000Y-75184000D02*
X179832000Y-76200000D01*
X183887001Y-69591000D02*
X183887001Y-72652999D01*
X182372000Y-74168000D02*
X182372000Y-76200000D01*
X183887001Y-72652999D02*
X182372000Y-74168000D01*
X184687001Y-69591000D02*
X184687001Y-75975001D01*
X184687001Y-75975001D02*
X184912000Y-76200000D01*
X185487001Y-69591000D02*
X185487001Y-71441001D01*
X187452000Y-73406000D02*
X187452000Y-76200000D01*
X185487001Y-71441001D02*
X187452000Y-73406000D01*
X186287001Y-69591000D02*
X186287001Y-70971001D01*
X189992000Y-74676000D02*
X189992000Y-76200000D01*
X186287001Y-70971001D02*
X189992000Y-74676000D01*
X187087001Y-69591000D02*
X187087001Y-70501001D01*
X187087001Y-70501001D02*
X192532000Y-75946000D01*
X192532000Y-75946000D02*
X192532000Y-76200000D01*
X188537001Y-68141000D02*
X198697000Y-68141000D01*
X201676000Y-71120000D02*
X207772000Y-71120000D01*
X198697000Y-68141000D02*
X201676000Y-71120000D01*
X188537001Y-64141000D02*
X199003000Y-64141000D01*
X204724000Y-58420000D02*
X207772000Y-58420000D01*
X199003000Y-64141000D02*
X204724000Y-58420000D01*
X188537001Y-63341000D02*
X198279000Y-63341000D01*
X205740000Y-55880000D02*
X207772000Y-55880000D01*
X198279000Y-63341000D02*
X205740000Y-55880000D01*
X173228000Y-69276000D02*
X175834000Y-69276000D01*
X176969000Y-68141000D02*
X180037001Y-68141000D01*
X175834000Y-69276000D02*
X176969000Y-68141000D01*
X173228000Y-67376000D02*
X180002001Y-67376000D01*
X180002001Y-67376000D02*
X180037001Y-67341000D01*
X181487001Y-61091000D02*
X181487001Y-60075001D01*
X174752000Y-53340000D02*
X174752000Y-45720000D01*
X181487001Y-60075001D02*
X174752000Y-53340000D01*
X159004000Y-57404000D02*
X165862000Y-57404000D01*
X148844000Y-63500000D02*
X154940000Y-57404000D01*
X146812000Y-63500000D02*
X148844000Y-63500000D01*
X154940000Y-57404000D02*
X159004000Y-57404000D01*
X174999000Y-66541000D02*
X180037001Y-66541000D01*
X165862000Y-57404000D02*
X174999000Y-66541000D01*
X188537001Y-66541000D02*
X200159000Y-66541000D01*
X203200000Y-63500000D02*
X207772000Y-63500000D01*
X200159000Y-66541000D02*
X203200000Y-63500000D01*
X188537001Y-62541000D02*
X198063000Y-62541000D01*
X205740000Y-53340000D02*
X207772000Y-53340000D01*
X204724000Y-54356000D02*
X205740000Y-53340000D01*
X204724000Y-55880000D02*
X204724000Y-54356000D01*
X198063000Y-62541000D02*
X204724000Y-55880000D01*
M02*
